<svg xmlns="http://www.w3.org/2000/svg" id="Layer_1" height="512" viewBox="0 0 512 512" width="512"><g><circle cx="453.185" cy="371.168" r="10"></circle><path d="m511.701 288.728c-.65-2.59-2.34-4.84-4.64-6.189l-77.268-45.564c-.629-1.691-1.389-3.347-2.292-4.951-2.154-3.828-4.982-7.131-8.298-9.842-.924-3.345-4.99-11.879-5.889-13.299 1.59-8.019.292-16.25-3.768-23.462-4.027-7.154-10.339-12.557-17.982-15.461 4.05-9.376 3.982-20.328-1.145-29.827-4.522-8.378-12.104-14.421-21.35-17.017-2.871-.806-5.788-1.244-8.698-1.322.672-6.927-.783-13.884-4.275-20.087-4.555-8.091-12.03-13.94-21.049-16.472-8.959-2.515-18.383-1.455-26.549 2.984-.998.53-18.363 9.755-42.912 22.952-19.735-11.604-51.53-30.263-51.53-30.263-5.438-3.21-11.642-4.908-17.941-4.908-12.199 0-23.69 6.406-29.99 16.722-4.825 7.909-6.251 17.202-4.015 26.167.023.092.051.18.075.272-8.985 2.157-16.943 7.779-21.801 15.743-4.828 7.907-6.256 17.2-4.021 26.166.022.09.05.177.073.266-8.983 2.158-16.941 7.778-21.806 15.742-4.312 7.061-5.901 15.228-4.599 23.282-1.608 1.572-3.108 3.174-4.492 4.797-6.837 2.795-12.75 7.69-16.662 14.095-3.499 5.731-5.202 12.192-5.027 18.729l-78.611 42.756c-2.357 1.276-4.104 3.445-4.847 6.021-.743 2.575-.421 5.342.894 7.678l76.814 136.467c1.835 3.26 5.227 5.097 8.723 5.097 1.631 0 3.286-.4 4.814-1.242l53.281-29.336c2.339-1.288 4.066-3.457 4.796-6.025s.402-5.322-.91-7.647l-10-17.726 25.171-13.904c14.723 7.383 30.526 11.083 46.561 11.083 17.355 0 34.975-4.332 51.761-12.969 13.128 5.181 26.594 7.77 39.936 7.77 14.842 0 29.526-3.207 43.397-9.582l24.641 14.747-10.622 17.37c-1.38 2.27-1.81 5.04-1.17 7.62.63 2.569 2.3 4.83 4.58 6.189l52.21 31.15c1.55.92 3.32 1.41 5.12 1.41 3.51 0 6.71-1.79 8.54-4.79l9.35-15.33c2.87-4.71 1.38-10.88-3.33-13.75-1.57-.96-3.36-1.46-5.2-1.46-3.52 0-6.71 1.79-8.54 4.79l-4.2 6.88-35.02-20.9 71.11-116.299 35.07 20.58-20.08 32.91c-2.88 4.71-1.38 10.87 3.32 13.75 1.57.96 3.37 1.46 5.2 1.46 3.52 0 6.72-1.79 8.55-4.79v-.01l25.38-41.58c1.392-2.28 1.812-5.061 1.162-7.641zm-121.064 2.615s23.041-12.007 23.097-12.038c7.69-4.198 13.393-10.916 16.238-19.052l5.865 3.433-55.159 90.401-20.765-12.428c-.001 0 30.583-50.025 30.724-50.316zm-207.442-188.202c2.732-4.471 7.561-7.141 12.92-7.141 2.723 0 5.409.736 7.764 2.128l19.043 11.263c3.433 2.03 5.845 5.241 6.792 9.041.929 3.728.332 7.598-1.682 10.895v.001c-1.094 1.791-2.544 3.264-4.205 4.404-.918.499-1.827.993-2.739 1.488-4.138 1.734-9.02 1.685-13.201-.559l-19.581-11.573c-.001 0-.002-.001-.003-.002-3.43-2.031-5.841-5.24-6.788-9.037-.931-3.732-.333-7.607 1.68-10.908zm-25.739 42.18c2.73-4.476 7.555-7.147 12.905-7.147 2.724 0 5.409.736 7.764 2.129l33.33 19.703c3.432 2.029 5.844 5.241 6.792 9.044.93 3.731.333 7.604-1.681 10.903v.001c-4.1 6.717-13.105 9.095-20.125 5.343l-33.889-20.036c-3.428-2.027-5.837-5.234-6.784-9.029-.929-3.731-.331-7.604 1.688-10.911zm-25.756 42.179c2.695-4.412 7.646-7.153 12.919-7.153 2.716 0 5.398.736 7.752 2.128l34.286 20.272c3.432 2.029 5.844 5.241 6.792 9.044.93 3.731.333 7.604-1.681 10.903-4.265 6.981-13.537 9.229-20.673 5.012l-34.284-20.271c-3.433-2.03-5.845-5.241-6.792-9.041-.93-3.728-.332-7.598 1.681-10.894zm13.972 48.411c3.433 2.029 5.844 5.242 6.792 9.044.93 3.732.333 7.604-1.681 10.902v.001c-4.267 6.987-13.547 9.241-20.683 5.023l-19.043-11.263c-3.432-2.029-5.844-5.241-6.792-9.044-.93-3.731-.333-7.603 1.681-10.901 2.695-4.412 7.646-7.153 12.919-7.153 2.723 0 5.408.736 7.764 2.129zm-55.002 176.549-66.969-118.975 35.779-19.372 66.941 118.662zm38.308-55.857-52.004-92.184 13.35-7.206c2.767 3.846 6.329 7.123 10.553 9.621l7.94 4.696 41.397 73.343zm42.214-15.252-32.953-58.381c11.727-.143 23.134-6.078 29.613-16.69v.001c3.188-5.221 4.883-11.049 5.029-16.987 1.969.335 3.951.519 5.927.519 11.872 0 23.473-5.958 30.029-16.696 4.826-7.903 6.253-17.195 4.018-26.162-.081-.323-.175-.641-.265-.961 8.492-2.212 16.14-7.583 21.045-15.619 4.826-7.903 6.253-17.195 4.018-26.162-1.095-4.396-3.01-8.449-5.61-12.007.894-.488 85.678-46.238 85.877-46.344.034-.018.068-.036.102-.055 3.571-1.949 7.697-2.416 11.62-1.314 3.883 1.09 7.088 3.585 9.025 7.026 1.897 3.371 2.356 7.272 1.291 10.986-1.092 3.809-3.644 6.975-7.187 8.917l-.025.014c-.003.001-.005.003-.008.005l-55.702 30.4c-4.848 2.646-6.633 8.72-3.987 13.568 1.816 3.326 5.246 5.211 8.787 5.211 1.619 0 3.261-.395 4.782-1.225l65.425-35.708c3.571-1.948 7.699-2.415 11.62-1.314 3.98 1.117 7.231 3.695 9.155 7.26 3.766 6.977.829 15.929-6.525 19.943l-64.951 35.448c-4.847 2.647-6.631 8.723-3.984 13.569 1.816 3.326 5.246 5.21 8.786 5.21 1.619 0 3.262-.395 4.784-1.225l60.627-33.103c3.55-1.91 7.642-2.363 11.538-1.27 3.883 1.09 7.088 3.585 9.025 7.026 1.897 3.37 2.356 7.271 1.291 10.985-1.095 3.818-3.656 6.99-7.159 8.902l-61.21 31.448c-4.918 2.513-6.868 8.537-4.354 13.455 1.769 3.461 5.275 5.451 8.913 5.451 1.531 0 3.085-.353 4.542-1.098l55.475-28.355c3.526-1.863 7.577-2.297 11.432-1.214 3.883 1.09 7.088 3.585 9.025 7.026 1.897 3.37 2.356 7.271 1.292 10.985-1.087 3.791-3.62 6.945-7.137 8.891l-148.579 77.422c-.057.029-.114.06-.17.091-28.16 15.374-57.984 16.098-84.287 2.131zm116.899 3.428 68.213-35.545-17.239 28.178c-16.063 7.808-33.577 10.276-50.974 7.367z"></path></g></svg>