<svg xmlns="http://www.w3.org/2000/svg" id="Capa_1" height="512" viewBox="0 0 511.98 511.98" width="512"><g><path d="m127.145 54.514c-73.135 75.138-66.884 195.569 12.556 262.863 33.155 28.086 25.088 65.281 26.288 72.604v62h30c0 33.084 26.916 60 60 60s60-26.916 60-60h30v-62c1.228-7.424-6.983-44.31 26.546-72.823 40.326-34.29 63.454-84.289 63.454-137.177.001-161.352-196.781-240.594-308.844-125.467zm128.845 427.466c-16.542 0-30-13.458-30-30h60c0 16.542-13.458 30-30 30zm60-60h-120v-32h120zm37.111-127.677c-20.001 17.009-32.768 40.41-36.186 65.677h-45.925v-106.898c25.849-6.678 45-30.195 45-58.102h-30c0 16.542-13.458 30-30 30s-30-13.458-30-30h-30c0 27.906 19.151 51.424 45 58.102v106.898h-45.916c-3.394-25.305-16.089-48.643-35.981-65.494-105.666-89.512-42.75-260.687 92.616-264.446 141.434-3.935 208.789 172.939 101.392 264.263z"></path></g></svg>