<svg xmlns="http://www.w3.org/2000/svg" id="Capa_1" height="512" viewBox="0 0 512 512" width="512"><g><circle cx="421" cy="316" r="15"></circle><path d="m226 512c33.084 0 60-26.916 60-60v-91c0-16.542 13.458-30 30-30h31.509c6.968 34.192 37.272 60 73.491 60 41.355 0 75-33.645 75-75s-33.645-75-75-75c-36.219 0-66.522 25.808-73.491 60h-31.509c-33.084 0-60 26.916-60 60v91c0 16.542-13.458 30-30 30s-30-13.458-30-30v-91h15c8.284 0 15-6.716 15-15v-46.791l91.853-73.482c17.888-14.31 28.147-35.656 28.147-58.564v-62.163c0-36.219-25.808-66.522-60-73.491v-16.509c0-8.284-6.716-15-15-15h-30c-24.813 0-45 20.187-45 45s20.187 45 45 45h30c8.284 0 15-6.716 15-15v-12.42c17.459 6.192 30 22.865 30 42.42v62.163c0 13.745-6.156 26.553-16.889 35.139l-10.872 8.698h-214.477l-10.873-8.698c-10.733-8.587-16.889-21.394-16.889-35.139v-62.163c0-19.555 12.541-36.228 30-42.42v12.42c0 8.284 6.716 15 15 15h30c24.813 0 45-20.187 45-45s-20.187-45-45-45h-30c-8.284 0-15 6.716-15 15v16.509c-34.192 6.969-60 37.272-60 73.491v62.163c0 22.909 10.259 44.254 28.147 58.565l91.853 73.481v46.791c0 8.284 6.716 15 15 15h15v91c0 33.084 26.916 60 60 60zm195-241c24.813 0 45 20.187 45 45s-20.187 45-45 45-45-20.187-45-45 20.187-45 45-45zm-165-211h-15c-8.271 0-15-6.729-15-15s6.729-15 15-15h15zm-150-30h15c8.271 0 15 6.729 15 15s-6.729 15-15 15h-15zm54.371 250.287-49.109-39.287h139.477l-49.109 39.287c-3.559 2.846-5.63 7.156-5.63 11.713v39h-30v-39c0-4.557-2.071-8.867-5.629-11.713z"></path></g></svg>